HIERARCHY
ROOT Hips
{
  OFFSET 13.6774 106.653 -34.4427
  CHANNELS 6 Xposition Yposition Zposition Zrotation Xrotation Yrotation
  JOINT ToSpine
  {
    OFFSET -2.69724 7.43032 -0.144315
    CHANNELS 3 Zrotation Xrotation Yrotation
    JOINT Spine
    {
      OFFSET -0.0310711 10.7595 1.96963
      CHANNELS 3 Zrotation Xrotation Yrotation
      JOINT Spine1
      {
        OFFSET 19.9056 3.91189 0.764692
        CHANNELS 3 Zrotation Xrotation Yrotation
        JOINT Neck
        {
          OFFSET 25.9749 7.03908 -0.130764
          CHANNELS 3 Zrotation Xrotation Yrotation
          JOINT Head
          {
            OFFSET 9.52751 0.295786 -0.907742
            CHANNELS 3 Zrotation Xrotation Yrotation
            End Site
            {
              OFFSET 16.4037 0.713936 2.7358
            }
          }
        }
        JOINT LeftShoulder
        {
          OFFSET 17.7449 4.33886 11.7777
          CHANNELS 3 Zrotation Xrotation Yrotation
          JOINT LeftArm
          {
            OFFSET 0.911315 1.27913 9.80584
            CHANNELS 3 Zrotation Xrotation Yrotation
            JOINT LeftForeArm
            {
              OFFSET 28.6126 1.18197 -3.53199
              CHANNELS 3 Zrotation Xrotation Yrotation
              JOINT LeftHand
              {
                OFFSET 27.5088 0.0218783 0.327423
                CHANNELS 3 Zrotation Xrotation Yrotation
                End Site
                {
                  OFFSET 18.6038 -0.000155887 0.382096
                }
              }
            }
          }
        }
        JOINT RightShoulder
        {
          OFFSET 17.1009 2.89543 -12.2328
          CHANNELS 3 Zrotation Xrotation Yrotation
          JOINT RightArm
          {
            OFFSET 1.4228 0.178766 -10.211
            CHANNELS 3 Zrotation Xrotation Yrotation
            JOINT RightForeArm
            {
              OFFSET 28.733 1.87905 2.64907
              CHANNELS 3 Zrotation Xrotation Yrotation
              JOINT RightHand
              {
                OFFSET 27.4588 0.290562 -0.101845
                CHANNELS 3 Zrotation Xrotation Yrotation
                End Site
                {
                  OFFSET 17.8396 -0.255518 -0.000602873
                }
              }
            }
          }
        }
      }
    }
  }
  JOINT LeftUpLeg
  {
    OFFSET -5.61296 -2.22332 -10.2353
    CHANNELS 3 Zrotation Xrotation Yrotation
    JOINT LeftLeg
    {
      OFFSET 2.56703 -44.7417 -7.93097
      CHANNELS 3 Zrotation Xrotation Yrotation
      JOINT LeftFoot
      {
        OFFSET 3.16933 -46.5642 -3.96578
        CHANNELS 3 Zrotation Xrotation Yrotation
        JOINT LeftToeBase
        {
          OFFSET 0.346054 -6.02161 12.8035
          CHANNELS 3 Zrotation Xrotation Yrotation
          End Site
          {
            OFFSET 0.134235 -1.35082 5.13018
          }
        }
      }
    }
  }
  JOINT RightUpLeg
  {
    OFFSET -5.7928 -1.72406 10.6446
    CHANNELS 3 Zrotation Xrotation Yrotation
    JOINT RightLeg
    {
      OFFSET -2.57161 -44.7178 -7.85259
      CHANNELS 3 Zrotation Xrotation Yrotation
      JOINT RightFoot
      {
        OFFSET -3.10148 -46.5936 -4.03391
        CHANNELS 3 Zrotation Xrotation Yrotation
        JOINT RightToeBase
        {
          OFFSET -0.0828122 -6.13587 12.8035
          CHANNELS 3 Zrotation Xrotation Yrotation
          End Site
          {
            OFFSET -0.131328 -1.35082 5.13018
          }
        }
      }
    }
  }
}
MOTION
Frames: 17
Frame Time: 0.03333333333333333
0.0000 93.1000 0.0000 63.5815 -58.6696 -24.7079 -70.7275 -0.0854 88.0617 67.1442 66.2789 12.1997 8.8644 14.2113 6.4126 -119.9791 25.8824 162.7557 -163.8603 69.2284 -171.4715 -1.2449 -19.0659 -28.1039 -85.3697 37.3140 -133.3954 21.9440 -1.1187 -91.0398 -0.2903 -0.0257 -0.0337 -2.3775 5.3779 42.1943 -102.6966 -15.4110 95.8592 13.0178 1.3205 97.2478 0.1392 -0.0543 -0.3315 -59.0449 9.9057 104.8239 -2.6947 45.1130 -4.6877 -0.4007 -20.4154 -1.8978 5.6499 -14.6218 9.7069 -36.7469 -8.1740 94.7274 1.6497 37.9968 10.4655 0.8264 2.9602 -0.8675 1.2437 -13.6126 -1.0182 
0.0000 93.1000 0.0000 65.6968 -53.9757 -20.8066 -70.6800 0.1872 87.9143 68.2335 66.9260 13.1938 8.1687 15.1375 6.2601 -120.0321 25.8989 161.2561 -163.0509 69.2602 -170.9565 -0.7838 -18.8888 -27.1531 -83.3420 36.3000 -134.4928 21.9727 -1.1420 -91.7979 -0.2154 0.0390 0.1032 -2.0708 5.9079 41.3020 -108.9429 -13.9330 95.0544 13.2707 1.3125 97.0918 -0.0061 0.4586 0.2557 -59.2096 9.3988 102.1879 -2.6784 42.5338 -7.3034 -0.5792 -18.4330 -1.7916 5.6131 -14.6113 10.7640 -38.7511 -10.7609 92.1209 1.6459 36.9944 9.4601 1.4776 3.0172 -1.1241 0.9895 -14.2150 -0.5775 
0.0000 93.1000 0.0000 67.4725 -49.6402 -18.8261 -70.6440 -0.2146 87.9548 67.2306 67.0697 14.8947 7.9705 15.8882 6.1616 -119.7809 26.3023 164.3149 -166.0402 69.8774 -168.8920 -0.7670 -18.2134 -26.2830 -82.0113 35.3010 -134.6004 21.3200 -2.0046 -92.7394 0.0393 -0.2300 0.1041 -2.4289 5.9570 39.6180 -114.2383 -12.8281 96.0480 13.8262 1.4663 95.1798 -0.0019 0.3129 0.1258 -59.1581 8.9568 100.3495 -3.2749 40.0413 -6.6350 -1.0247 -17.4014 -1.7045 4.6915 -12.0753 7.0401 -39.7669 -12.9092 88.2603 1.7388 35.4255 8.3938 1.4020 2.3725 -1.1004 0.1285 -13.9465 0.3768 
0.0000 93.1000 0.0000 68.8146 -45.9922 -17.9793 -70.8169 -0.2494 87.8542 67.2267 67.7431 15.6815 7.3883 16.7002 6.1871 -121.6854 26.9210 163.4207 -166.0493 70.3361 -168.0399 -0.4505 -18.2367 -26.1315 -81.3109 35.0808 -135.3422 21.0419 -2.0734 -92.7723 -0.0128 -0.1806 -0.2114 -2.3991 6.0304 37.4883 -118.8646 -12.0186 97.0391 16.2721 1.0933 94.0098 0.1765 0.0181 -0.0352 -58.4407 9.2396 99.1605 -2.6721 38.7803 -8.7064 -1.0922 -14.9770 -1.4447 5.1470 -12.7794 7.7062 -41.5250 -14.0542 86.1309 0.9503 35.2172 7.2583 -0.1791 1.6804 -0.7989 1.3054 -12.5076 0.4362 
0.0000 93.1000 0.0000 69.5356 -42.5478 -15.4156 -70.7791 -0.1002 87.7972 68.3794 67.9514 16.2086 6.8830 17.3817 5.6296 -121.3589 27.1322 162.7438 -166.8537 70.2567 -170.0348 -0.5399 -17.9110 -25.5668 -80.4235 35.1171 -135.3728 21.9308 -1.7774 -93.7012 0.1755 -0.2257 0.1915 -2.0515 5.7040 35.9279 -122.9966 -11.4945 98.0296 18.5217 0.0474 92.0827 0.0830 0.8482 0.4341 -57.0705 10.5065 98.9026 -2.8342 38.1622 -11.2460 -1.2411 -12.7156 -1.2823 4.9127 -13.6536 7.6242 -42.7019 -15.0215 83.1707 0.6562 34.1487 7.4737 -0.4951 1.4186 -1.5762 2.1374 -13.1218 1.0964 
0.0000 93.1000 0.0000 70.5904 -38.8713 -13.4183 -70.6607 -0.3042 87.8785 69.4572 67.7598 15.5749 6.9578 17.1909 5.2486 -120.2939 26.7075 161.4248 -166.2716 70.0778 -168.1013 -0.6045 -18.3338 -25.5861 -79.9486 36.1254 -135.5101 22.3053 -2.1697 -93.7699 -0.2303 -0.1380 0.1441 -2.2653 5.8390 35.0539 -126.5098 -11.0258 98.0371 19.6921 0.2497 91.0220 0.2689 0.3115 0.2231 -55.3953 11.8937 98.3011 -4.2953 38.2224 -11.7185 -1.6697 -12.0473 -1.0893 4.9728 -12.9034 7.3154 -44.6053 -15.0218 80.9338 2.5134 34.1219 7.3372 -0.5053 1.2013 -1.1879 1.3519 -13.9653 0.3516 
0.0000 93.1000 0.0000 70.8272 -35.9299 -12.7407 -70.7426 -0.3329 87.9014 71.2910 67.8502 14.9654 7.2145 17.2087 5.3996 -120.2460 26.4052 160.6712 -167.4720 70.0847 -166.8343 -0.8713 -18.3410 -25.1676 -77.8796 38.1630 -136.5835 22.7069 -2.7226 -93.9261 -0.2919 -0.2523 0.2844 -2.2178 5.9644 34.3199 -129.8027 -10.2360 98.7798 21.6055 -0.4813 88.8899 0.0218 0.4199 0.3254 -54.0954 13.0576 98.3498 -3.7652 39.2175 -14.0262 -2.2278 -11.2949 -1.0029 4.8598 -13.2216 8.2225 -45.7391 -16.0710 78.4819 1.6536 34.3777 3.4793 0.0605 0.9943 -1.0854 1.0501 -14.2583 0.7197 
0.0000 93.1000 0.0000 71.9297 -34.0130 -9.7686 -70.6769 -0.1970 87.9228 71.4213 67.8707 14.4752 7.2276 17.3832 4.8910 -119.1639 26.5156 159.8963 -168.1622 70.7679 -165.9754 -0.6225 -18.7367 -25.3972 -77.2462 38.1719 -138.5028 22.6453 -1.8926 -93.8551 -0.2848 0.1491 0.1943 -1.9144 6.1142 34.4875 -132.7920 -8.8975 99.9281 23.3718 -1.0483 87.6620 0.1743 0.1695 0.3335 -52.0638 13.7962 97.9709 -4.3713 40.3512 -13.3953 -2.1455 -11.1036 -1.2851 3.8609 -11.6041 6.9076 -46.7238 -15.8138 76.2069 2.2541 34.3258 3.8890 0.6053 1.0475 -0.7925 1.1690 -14.1592 0.8196 
0.0000 93.1000 0.0000 71.9058 -32.1171 -9.5702 -70.6802 -0.4870 87.8816 72.3961 67.9241 14.2707 7.0365 17.1925 5.1304 -118.1147 26.1548 158.5010 -166.7767 71.0106 -165.2965 -1.0864 -19.0887 -25.2221 -75.5288 38.4665 -139.5601 22.1949 -2.1987 -93.6173 -0.1485 -0.2807 0.1570 -2.3900 6.0473 34.1193 -134.6118 -8.5769 100.8854 24.3564 -1.3669 86.0805 0.1201 -0.0305 -0.1075 -51.1108 13.8421 97.1117 -3.9589 40.0595 -13.2975 -2.4432 -11.0329 -0.9255 3.8834 -11.1755 7.1358 -47.0547 -15.8697 75.3484 2.3739 34.2471 3.8923 0.6208 0.6238 -0.6496 1.1269 -14.3880 -0.2023 
0.0000 93.1000 0.0000 73.0679 -31.3363 -8.8490 -70.5850 0.1777 87.9310 73.1096 67.9609 14.2623 7.1505 17.0018 6.0408 -117.1758 25.6788 155.9711 -168.9476 71.1030 -164.5938 -0.7998 -18.9644 -25.2588 -74.2029 39.1783 -141.5063 22.5742 -1.6912 -93.8970 0.2325 0.0263 0.5546 -1.4859 6.0771 34.1669 -136.7792 -8.6795 101.1980 24.5694 -2.0596 84.8790 -0.0386 0.5427 0.7048 -50.0673 13.8928 95.1727 -4.3498 39.9586 -12.8334 -2.3576 -12.4535 -1.5246 2.8652 -9.7802 8.8534 -47.5519 -16.0039 74.5191 2.1609 34.5854 4.2638 -0.2019 0.0864 -0.4130 1.7049 -15.2133 -5.3494 
0.0000 93.1000 0.0000 72.2703 -30.6246 -8.6231 -70.5177 0.0940 87.7919 72.0731 68.0610 14.5741 7.1248 17.1690 6.3667 -116.0183 25.6484 155.5195 -170.8168 71.0801 -161.4955 -1.0935 -18.9086 -25.6237 -72.9221 39.1621 -141.4159 22.9840 -1.7803 -92.6316 0.1819 -0.0732 0.2609 -1.7278 5.8940 34.0932 -139.0669 -9.4637 100.8295 25.0130 -2.7413 84.6425 -0.1198 0.3221 0.3216 -50.3797 13.0009 93.2602 -4.3091 39.1897 -13.2366 -3.4479 -13.9747 -1.6701 2.4165 -8.4014 11.6189 -47.9064 -16.0438 73.9526 2.1166 33.3914 3.3580 -1.9212 -1.2438 -0.1932 1.3250 -14.4736 -6.7155 
0.0000 93.1000 0.0000 73.0142 -30.3285 -7.7426 -70.4599 0.2533 87.8756 72.0068 68.1755 13.8302 7.1615 17.2365 6.7012 -116.1339 25.8220 157.0341 -169.9924 71.6976 -160.0255 -0.6228 -18.9182 -26.0586 -71.7920 38.9133 -142.6277 23.7743 -1.9634 -92.8631 -0.2991 0.4606 -0.3302 -1.6249 5.9976 34.3625 -139.7273 -10.6162 100.8343 25.6455 -2.7630 83.7557 0.1493 -0.4552 -0.4281 -49.5317 12.6042 92.8080 -4.4828 41.1647 -12.1490 -3.5999 -14.4216 -1.9618 2.2094 -8.7300 11.1865 -47.5934 -15.9252 74.2015 2.4715 34.5095 3.1416 -3.1438 -2.4784 0.3308 1.6798 -14.8784 -8.7861 
0.0000 93.1000 0.0000 73.2785 -30.2733 -7.6949 -70.5726 0.2448 87.9426 74.1253 68.7987 11.0314 7.0177 16.9814 6.6829 -114.9532 25.7434 154.8923 -167.4492 71.9855 -162.9211 -0.8639 -19.3386 -26.5562 -71.9386 38.8056 -143.9467 24.4379 -1.5360 -91.7674 -0.2498 0.2019 0.0467 -1.8378 5.8351 34.8280 -140.5907 -11.1466 100.9783 25.5632 -2.7089 83.7660 0.0304 0.0443 -0.1545 -48.3521 13.4879 92.3981 -3.8712 43.2530 -13.8556 -3.5385 -15.0956 -2.1047 1.7927 -8.4651 12.0602 -46.4471 -15.1088 74.3312 2.2044 35.4759 1.8681 -5.2778 -3.6873 0.2711 1.9703 -14.4672 -9.3709 
0.0000 93.1000 0.0000 72.9555 -30.4093 -7.9150 -70.6371 0.0781 87.9240 75.0000 69.0461 9.0098 6.3582 17.3255 7.1488 -115.1318 25.4493 155.1701 -172.4310 71.9097 -158.0942 -1.0266 -19.6900 -26.3895 -70.6957 39.1078 -144.1154 26.5977 -1.1086 -91.7593 -0.2069 -0.0684 -0.0698 -2.1939 5.7896 35.1052 -140.7425 -11.3452 99.8574 25.7546 -2.9289 83.8504 -0.0197 0.1900 -0.0838 -47.4538 13.1308 92.1606 -4.0822 44.3215 -13.0096 -3.4244 -15.5337 -1.7850 0.5919 -7.1451 13.4876 -45.7215 -14.7709 75.2126 1.2976 36.2614 2.2391 -5.4439 -3.8187 0.1210 1.2859 -12.8736 -9.1114 
0.0000 93.1000 0.0000 72.9619 -30.5154 -7.0813 -70.5882 -0.0227 88.0168 76.0766 68.9134 7.8651 6.2126 17.0775 6.8294 -115.9530 25.7302 153.8894 -172.1720 72.1426 -158.2498 -0.9594 -19.1622 -26.5626 -69.9198 39.1723 -144.3300 27.1216 -1.1125 -91.8120 -0.1651 -0.1264 0.1268 -2.3031 5.7922 35.1321 -139.6125 -11.4696 99.7656 25.4643 -2.8564 83.8897 0.1967 0.1618 -0.0929 -46.7867 13.9547 92.4790 -4.3031 45.4341 -13.0097 -2.8495 -16.0730 -1.7578 0.5887 -6.9105 13.3495 -44.7896 -13.9790 76.2646 1.0151 36.7085 2.2493 -4.6963 -4.6492 0.0076 1.7188 -11.8275 -11.1741 
0.0000 93.1000 0.0000 73.0079 -30.2906 -7.2138 -70.6615 0.1385 88.0534 76.3157 69.0262 7.0571 6.2715 17.0993 7.3207 -116.1760 26.0302 153.6220 -170.3439 72.7233 -159.7250 -0.7272 -18.9052 -26.2470 -70.3504 38.9427 -142.7386 26.8716 -0.7202 -91.7814 0.0291 0.0343 -0.1138 -2.1706 6.1675 34.7847 -138.5852 -12.1141 98.8211 24.9558 -2.9455 83.7975 0.3139 -0.2131 -0.2491 -46.3518 13.8139 91.6899 -4.1850 46.2031 -12.3945 -2.7358 -16.2100 -1.9055 0.8585 -7.0560 13.7738 -44.4939 -14.0499 76.7108 1.2018 37.1343 3.5696 -4.7816 -4.7739 0.1607 1.9602 -12.0703 -11.0704 
0.0000 93.1000 0.0000 72.7388 -31.3826 -7.3086 -70.5991 -0.0310 88.0738 75.2594 69.2399 7.8552 5.9896 17.2224 8.0117 -116.0713 26.5315 154.7687 -173.3634 73.1503 -157.1089 -0.9007 -19.0705 -26.1836 -69.7243 39.1002 -143.2324 25.9327 -1.0767 -91.7349 -0.1096 0.0863 -0.1491 -2.2482 6.1484 34.1424 -138.5765 -12.0119 97.9180 24.7514 -2.8666 83.9006 0.2894 -0.3716 -0.1722 -45.6121 13.8574 91.1102 -4.2589 46.5001 -12.6007 -3.3512 -16.2220 -1.7846 1.4975 -7.4910 14.8535 -44.7963 -13.9583 76.3849 2.2322 36.5375 3.0950 -5.8447 -4.1561 0.2928 1.8881 -11.6655 -12.5229 
